<svg width="114" height="114" viewBox="0 0 114 114" fill="none" xmlns="http://www.w3.org/2000/svg">
<path d="M57.101 113.624C39.437 113.624 25.101 106.456 25.101 94.936C25.101 91.48 26.637 88.152 29.581 84.696C27.789 81.624 26.765 79.96 26.765 77.144C26.765 69.08 36.237 43.736 45.069 30.808C54.029 17.752 56.717 15.576 64.909 15.576C68.109 15.576 70.285 15.704 71.821 16.088V18.52C71.821 26.328 69.773 32.472 65.805 37.08H64.909C61.453 37.08 58.765 37.976 56.973 40.024C53.389 44.248 44.813 63.448 44.813 66.904C44.813 69.208 45.837 71.512 48.013 73.432C46.861 80.216 42.637 86.104 35.341 90.968L32.269 88.408C30.605 90.2 29.965 92.12 29.965 94.168C29.965 102.744 40.333 108.504 57.101 108.504C75.021 108.504 91.533 98.776 101.261 82.904C106.125 74.968 108.429 66.264 108.429 57.176C108.429 38.872 98.701 21.592 82.701 12.632C74.765 8.15199 66.317 5.84799 57.101 5.84799C38.541 5.84799 21.389 16.216 12.301 32.088C7.821 39.896 5.517 48.216 5.517 57.176C5.517 70.36 9.869 80.6 19.597 92.376C18.957 92.632 18.061 93.016 16.909 93.016C10.125 93.016 0.653 73.176 0.653 57.176C0.653 37.208 11.533 18.904 29.069 8.66399C37.773 3.544 47.117 0.983994 57.101 0.983994C76.941 0.983994 95.885 11.736 105.741 29.144C110.733 37.976 113.293 47.192 113.293 57.176C113.293 77.016 102.285 96.088 84.877 106.072C76.173 111.064 66.957 113.624 57.101 113.624ZM74.765 40.152C74.253 40.152 71.949 39.512 67.725 38.232C72.717 32.088 74.125 26.968 74.125 19.288V16.984L79.245 19.544C81.293 20.568 82.061 20.952 82.061 23.64C82.061 28.504 81.421 32.472 79.757 35.672C78.221 38.616 76.557 40.152 74.765 40.152ZM45.197 95.832C44.941 95.832 44.813 95.704 44.685 95.704C44.429 95.704 42.125 94.552 37.389 92.376C44.813 87.512 49.421 80.984 50.317 74.328L54.541 77.528C55.949 78.552 56.717 79.832 56.717 80.984C56.717 84.568 48.525 95.832 45.197 95.832Z" fill="black"/>
</svg>
