<svg width="1000" height="1000" viewBox="0 0 1000 1000" fill="none" xmlns="http://www.w3.org/2000/svg">
<rect width="1000" height="1000" rx="200" fill="#808080"/>
<path fill-rule="evenodd" clip-rule="evenodd" d="M230.81 468.219C378.449 403.895 476.898 361.489 526.157 341C666.803 282.501 696.028 272.339 715.076 272.004C719.266 271.93 728.633 272.968 734.701 277.892C739.824 282.049 741.234 287.665 741.909 291.607C742.583 295.549 743.423 304.528 742.756 311.544C735.134 391.625 702.155 585.961 685.378 675.653C678.278 713.605 664.3 726.33 650.767 727.575C621.357 730.282 599.024 708.139 570.538 689.466C525.965 660.248 500.783 642.059 457.517 613.547C407.515 580.596 439.929 562.486 468.425 532.889C475.882 525.143 605.465 407.278 607.973 396.586C608.286 395.249 608.578 390.264 605.616 387.632C602.655 385 598.284 385.9 595.13 386.616C590.66 387.631 519.453 434.696 381.509 527.812C361.297 541.691 342.989 548.453 326.587 548.099C308.504 547.708 273.72 537.875 247.862 529.469C216.146 519.16 190.938 513.709 193.133 496.2C194.277 487.08 206.835 477.753 230.81 468.219Z" fill="white"/>
</svg>
