<svg width="1000" height="1000" viewBox="0 0 1000 1000" fill="none" xmlns="http://www.w3.org/2000/svg">
<rect width="1000" height="1000" rx="200" fill="#808080"/>
<g clip-path="url(#clip0_60_32)">
<path d="M732.271 264.71C716.549 250.203 653.017 204.082 511.502 203.456C511.502 203.456 344.619 193.392 263.267 268.014C217.981 313.309 202.051 379.585 200.37 461.754C198.69 543.923 196.516 697.913 344.952 739.667H345.094L344.999 803.38C344.999 803.38 344.05 829.175 361.034 834.434C381.579 840.814 393.636 821.209 413.25 800.076C424.016 788.475 438.883 771.433 450.086 758.408C551.604 766.952 629.681 747.423 638.548 744.537C659.045 737.891 775.031 723.034 793.895 569.053C813.367 410.345 784.478 309.957 732.271 264.71ZM749.474 557.67C733.553 686.236 639.478 694.315 622.133 699.878C614.757 702.252 546.183 719.312 459.95 713.682C459.95 713.682 395.696 791.199 375.626 811.355C372.493 814.507 368.81 815.779 366.351 815.152C362.895 814.307 361.946 810.215 361.983 804.234C362.04 795.69 362.534 698.359 362.534 698.359C236.969 663.498 244.289 532.436 245.713 463.805C247.137 395.174 260.029 338.952 298.327 301.138C367.139 238.811 508.891 248.124 508.891 248.124C628.598 248.646 685.96 284.694 699.261 296.771C743.426 334.584 765.927 425.07 749.474 557.632V557.67Z" fill="white"/>
<path d="M569.756 458.165C568.199 426.779 552.256 410.294 521.926 408.712" stroke="white" stroke-width="16.86" stroke-linecap="round" stroke-linejoin="round"/>
<path d="M610.817 471.931C611.45 442.691 602.788 418.26 584.832 398.639C566.794 378.949 541.825 368.107 509.783 365.762" stroke="white" stroke-width="16.86" stroke-linecap="round" stroke-linejoin="round"/>
<path d="M652.855 488.375C652.469 437.633 637.308 397.671 607.37 368.487C577.433 339.303 540.202 324.556 495.676 324.246" stroke="white" stroke-width="16.86" stroke-linecap="round" stroke-linejoin="round"/>
<path d="M523.511 565.36C523.511 565.36 534.762 566.31 540.819 558.847L552.629 543.99C558.325 536.622 572.072 531.923 585.535 539.423C595.623 545.177 605.417 551.431 614.88 558.164C623.814 564.734 642.108 580 642.165 580C650.881 587.357 652.893 598.161 646.96 609.554C646.96 609.62 646.912 609.734 646.912 609.791C640.377 621.12 632.08 631.337 622.333 640.058C622.219 640.114 622.219 640.171 622.114 640.228C613.646 647.304 605.326 651.327 597.155 652.295C595.952 652.506 594.729 652.582 593.509 652.523C589.906 652.558 586.321 652.006 582.895 650.89L582.629 650.501C570.041 646.95 549.021 638.064 514.018 618.753C493.762 607.71 474.477 594.972 456.371 580.674C447.296 573.511 438.639 565.834 430.444 557.68L429.57 556.806L428.697 555.933L427.823 555.05C427.529 554.765 427.244 554.471 426.95 554.176C418.795 545.981 411.118 537.324 403.956 528.249C389.66 510.145 376.921 490.864 365.876 470.612C346.566 435.599 337.679 414.598 334.129 401.99L333.739 401.725C332.626 398.298 332.078 394.713 332.116 391.111C332.05 389.891 332.123 388.668 332.334 387.465C333.353 379.313 337.382 370.99 344.42 362.496C344.477 362.392 344.534 362.392 344.591 362.278C353.309 352.531 363.526 344.236 374.857 337.708C374.914 337.708 375.028 337.651 375.095 337.651C386.487 331.717 397.291 333.73 404.639 342.398C404.696 342.455 419.934 360.749 426.475 369.683C433.208 379.155 439.463 388.959 445.216 399.057C452.716 412.51 448.017 426.285 440.649 431.962L425.792 443.773C418.291 449.83 419.279 461.08 419.279 461.08C419.279 461.08 441.285 544.369 523.511 565.36Z" fill="white"/>
</g>
<defs>
<clipPath id="clip0_60_32">
<rect width="600" height="632.697" fill="white" transform="translate(200 203)"/>
</clipPath>
</defs>
</svg>
