<svg width="56" height="64" viewBox="0 0 56 64" fill="none" xmlns="http://www.w3.org/2000/svg">
<path d="M48.316 9.328C47.676 9.328 46.972 8.752 46.972 8.176C46.972 7.216 48.7 5.744 49.212 5.296L54.652 0.751999L55.228 1.328L51.26 6.96C50.108 8.56 49.084 9.328 48.316 9.328ZM18.876 5.68C18.364 5.68 17.66 5.104 17.66 4.528C17.66 4.08 17.98 3.632 18.492 3.248L21.436 1.008L22.012 1.584L20.22 4.656C19.836 5.36 19.26 5.68 18.876 5.68ZM3.9 9.712C3.196 9.712 2.556 9.072 2.556 8.496C2.556 7.984 3.004 7.344 3.836 6.576C4.668 5.808 6.78 3.952 10.172 1.136L10.812 1.712L6.716 7.344C5.628 8.88 4.668 9.712 3.9 9.712ZM41.02 5.936C40.508 5.936 39.74 5.36 39.74 4.784C39.74 4.272 40.06 3.952 40.636 3.504L43.58 1.2L44.156 1.776L42.364 4.848C41.916 5.616 41.404 5.936 41.02 5.936ZM25.98 9.84C25.34 9.84 24.636 9.264 24.636 8.624C24.636 8.368 24.764 8.048 24.956 7.792C25.148 7.472 25.724 6.768 26.876 5.808L32.316 1.264L32.892 1.84L28.924 7.472C27.836 9.008 26.812 9.84 25.98 9.84ZM31.676 16.112C31.036 16.112 30.332 15.536 30.332 14.896C30.332 14.576 30.524 14.32 30.716 14C30.908 13.68 31.484 12.976 32.572 12.08L38.012 7.536L38.588 8.112L34.62 13.744C33.468 15.344 32.444 16.112 31.676 16.112ZM9.66 16.112C8.956 16.112 8.316 15.472 8.316 14.896C8.316 14.32 8.7 13.68 9.596 12.912C10.428 12.208 12.54 10.352 15.932 7.536L16.572 8.112L12.476 13.744C11.324 15.28 10.428 16.112 9.66 16.112ZM42.364 16.112C41.852 16.112 41.148 15.6 41.148 14.96C41.148 14.512 41.404 14.192 41.98 13.744L44.924 11.44L45.5 12.016L43.708 15.088C43.26 15.792 42.812 16.112 42.364 16.112ZM20.156 16.304C19.58 16.304 18.94 15.664 18.876 15.088C18.876 14.64 19.132 14.32 19.708 13.872L22.652 11.632L23.228 12.208L21.372 15.28C20.988 15.92 20.54 16.304 20.156 16.304ZM48.316 22.832C47.676 22.832 46.972 22.256 46.972 21.68C46.972 20.784 48.636 19.248 49.212 18.8L54.652 14.256L55.228 14.832L51.26 20.464C50.108 22.064 49.084 22.832 48.316 22.832ZM25.724 22.704C25.148 22.704 24.508 22.128 24.508 21.552C24.508 21.04 24.892 20.72 25.404 20.336L28.348 18.032L28.924 18.608L27.132 21.68C26.684 22.384 26.172 22.704 25.724 22.704ZM13.308 23.792C12.668 23.792 11.9 23.088 11.9 22.448C11.9 21.936 12.348 21.488 12.924 21.04L16.38 18.352L17.02 18.992L14.972 22.576C14.46 23.472 13.756 23.792 13.308 23.792ZM2.172 23.792C1.532 23.792 0.764 23.088 0.764 22.448C0.764 21.936 1.212 21.488 1.788 21.04L5.244 18.352L5.884 18.992L3.836 22.576C3.324 23.472 2.684 23.792 2.172 23.792ZM35.644 23.792C35.004 23.792 34.236 23.088 34.236 22.448C34.236 21.936 34.684 21.488 35.26 21.04L38.716 18.352L39.356 18.992L37.308 22.576C36.796 23.472 36.156 23.792 35.644 23.792ZM48.316 32.816C47.676 32.816 46.972 32.24 46.972 31.664C46.972 30.704 48.7 29.232 49.212 28.784L54.652 24.24L55.228 24.816L51.26 30.448C50.108 32.048 49.084 32.816 48.316 32.816ZM18.876 29.168C18.364 29.168 17.66 28.592 17.66 28.016C17.66 27.568 17.98 27.12 18.492 26.736L21.436 24.496L22.012 25.072L20.22 28.144C19.836 28.848 19.26 29.168 18.876 29.168ZM3.9 33.2C3.196 33.2 2.556 32.56 2.556 31.984C2.556 31.472 3.004 30.832 3.836 30.064C4.668 29.296 6.78 27.44 10.172 24.624L10.812 25.2L6.716 30.832C5.628 32.368 4.668 33.2 3.9 33.2ZM41.02 29.424C40.508 29.424 39.74 28.848 39.74 28.272C39.74 27.76 40.06 27.44 40.636 26.992L43.58 24.688L44.156 25.264L42.364 28.336C41.916 29.104 41.404 29.424 41.02 29.424ZM25.98 33.328C25.34 33.328 24.636 32.752 24.636 32.112C24.636 31.856 24.764 31.536 24.956 31.28C25.148 30.96 25.724 30.256 26.876 29.296L32.316 24.752L32.892 25.328L28.924 30.96C27.836 32.496 26.812 33.328 25.98 33.328ZM31.676 39.6C31.036 39.6 30.332 39.024 30.332 38.384C30.332 38.064 30.524 37.808 30.716 37.488C30.908 37.168 31.484 36.464 32.572 35.568L38.012 31.024L38.588 31.6L34.62 37.232C33.468 38.832 32.444 39.6 31.676 39.6ZM9.66 39.6C8.956 39.6 8.316 38.96 8.316 38.384C8.316 37.808 8.7 37.168 9.596 36.4C10.428 35.696 12.54 33.84 15.932 31.024L16.572 31.6L12.476 37.232C11.324 38.768 10.428 39.6 9.66 39.6ZM42.364 39.6C41.852 39.6 41.148 39.088 41.148 38.448C41.148 38 41.404 37.68 41.98 37.232L44.924 34.928L45.5 35.504L43.708 38.576C43.26 39.28 42.812 39.6 42.364 39.6ZM20.156 39.792C19.58 39.792 18.94 39.152 18.876 38.576C18.876 38.128 19.132 37.808 19.708 37.36L22.652 35.12L23.228 35.696L21.372 38.768C20.988 39.408 20.54 39.792 20.156 39.792ZM48.316 46.32C47.676 46.32 46.972 45.744 46.972 45.168C46.972 44.272 48.636 42.736 49.212 42.288L54.652 37.744L55.228 38.32L51.26 43.952C50.108 45.552 49.084 46.32 48.316 46.32ZM25.724 46.192C25.148 46.192 24.508 45.616 24.508 45.04C24.508 44.528 24.892 44.208 25.404 43.824L28.348 41.52L28.924 42.096L27.132 45.168C26.684 45.872 26.172 46.192 25.724 46.192ZM2.172 47.28C1.532 47.28 0.764 46.576 0.764 45.936C0.764 45.424 1.212 44.976 1.788 44.528L5.244 41.84L5.884 42.48L3.836 46.064C3.324 46.96 2.684 47.28 2.172 47.28ZM35.644 47.28C35.004 47.28 34.236 46.576 34.236 45.936C34.236 45.424 34.684 44.976 35.26 44.528L38.716 41.84L39.356 42.48L37.308 46.064C36.796 46.96 36.156 47.28 35.644 47.28ZM13.308 47.28C12.668 47.28 11.9 46.576 11.9 45.936C11.9 45.424 12.348 44.976 12.924 44.528L16.38 41.84L17.02 42.48L14.972 46.064C14.46 46.96 13.756 47.28 13.308 47.28ZM48.316 56.304C47.676 56.304 46.972 55.728 46.972 55.152C46.972 54.192 48.7 52.72 49.212 52.272L54.652 47.728L55.228 48.304L51.26 53.936C50.108 55.536 49.084 56.304 48.316 56.304ZM18.876 52.656C18.364 52.656 17.66 52.08 17.66 51.504C17.66 51.056 17.98 50.608 18.492 50.224L21.436 47.984L22.012 48.56L20.22 51.632C19.836 52.336 19.26 52.656 18.876 52.656ZM3.9 56.688C3.196 56.688 2.556 56.048 2.556 55.472C2.556 54.96 3.004 54.32 3.836 53.552C4.668 52.784 6.78 50.928 10.172 48.112L10.812 48.688L6.716 54.32C5.628 55.856 4.668 56.688 3.9 56.688ZM41.02 52.912C40.508 52.912 39.74 52.336 39.74 51.76C39.74 51.248 40.06 50.928 40.636 50.48L43.58 48.176L44.156 48.752L42.364 51.824C41.916 52.592 41.404 52.912 41.02 52.912ZM25.98 56.816C25.34 56.816 24.636 56.24 24.636 55.6C24.636 55.344 24.764 55.024 24.956 54.768C25.148 54.448 25.724 53.744 26.876 52.784L32.316 48.24L32.892 48.816L28.924 54.448C27.836 55.984 26.812 56.816 25.98 56.816ZM9.66 63.088C8.956 63.088 8.316 62.448 8.316 61.872C8.316 61.296 8.7 60.656 9.596 59.888C10.428 59.184 12.54 57.328 15.932 54.512L16.572 55.088L12.476 60.72C11.324 62.256 10.428 63.088 9.66 63.088ZM31.676 63.088C31.036 63.088 30.332 62.512 30.332 61.872C30.332 61.552 30.524 61.296 30.716 60.976C30.908 60.656 31.484 59.952 32.572 59.056L38.012 54.512L38.588 55.088L34.62 60.72C33.468 62.32 32.444 63.088 31.676 63.088ZM42.364 63.088C41.852 63.088 41.148 62.576 41.148 61.936C41.148 61.488 41.404 61.168 41.98 60.72L44.924 58.416L45.5 58.992L43.708 62.064C43.26 62.768 42.812 63.088 42.364 63.088ZM20.156 63.28C19.58 63.28 18.94 62.64 18.876 62.064C18.876 61.616 19.132 61.296 19.708 60.848L22.652 58.608L23.228 59.184L21.372 62.256C20.988 62.896 20.54 63.28 20.156 63.28Z" fill="white"/>
</svg>
