<svg width="1000" height="1000" viewBox="0 0 1000 1000" fill="none" xmlns="http://www.w3.org/2000/svg">
<rect width="1000" height="1000" rx="200" fill="#808080"/>
<path d="M369.542 187.203C336.026 188.784 313.138 194.133 293.129 201.996C272.42 210.066 254.868 220.896 237.404 238.423C219.941 255.949 209.186 273.514 201.173 294.254C193.417 314.307 188.163 337.214 186.683 370.749C185.202 404.284 184.875 415.064 185.038 500.606C185.202 586.148 185.58 596.871 187.206 630.476C188.806 663.986 194.136 686.867 201.998 706.883C210.081 727.591 220.898 745.137 238.431 762.607C255.964 780.077 273.516 790.806 294.307 798.832C314.341 806.575 337.254 811.854 370.783 813.322C404.312 814.79 415.104 815.13 500.621 814.967C586.138 814.803 596.905 814.425 630.503 812.831C664.101 811.237 686.864 805.869 706.885 798.045C727.593 789.943 745.152 779.144 762.609 761.605C780.067 744.066 790.815 726.489 798.822 705.736C806.584 685.702 811.857 662.789 813.312 629.285C814.78 595.661 815.127 584.926 814.963 499.396C814.799 413.867 814.415 403.144 812.821 369.552C811.227 335.96 805.891 313.148 798.034 293.12C789.939 272.411 779.134 254.878 761.608 237.396C744.081 219.913 726.491 209.171 705.745 201.183C685.698 193.428 662.797 188.142 629.268 186.693C595.739 185.244 584.947 184.872 499.399 185.036C413.85 185.2 403.14 185.565 369.542 187.203ZM373.221 756.653C342.508 755.318 325.832 750.215 314.719 745.943C300.002 740.273 289.519 733.419 278.443 722.45C267.368 711.482 260.563 700.961 254.818 686.275C250.502 675.162 245.305 658.505 243.868 627.792C242.306 594.597 241.978 584.63 241.796 500.53C241.613 416.431 241.934 406.477 243.39 373.269C244.7 342.582 249.834 325.886 254.1 314.779C259.77 300.044 266.599 289.579 277.593 278.51C288.586 267.441 299.076 260.624 313.774 254.878C324.875 250.544 341.532 245.39 372.232 243.929C405.452 242.354 415.406 242.039 499.493 241.856C583.58 241.673 593.56 241.988 626.792 243.45C657.48 244.786 674.182 249.87 685.276 254.16C699.999 259.83 710.476 266.641 721.545 277.653C732.615 288.666 739.438 299.117 745.183 313.847C749.524 324.916 754.677 341.567 756.126 372.286C757.708 405.507 758.067 415.467 758.218 499.548C758.369 583.628 758.073 593.614 756.618 626.809C755.276 657.522 750.186 674.204 745.908 685.33C740.238 700.041 733.402 710.53 722.402 721.593C711.402 732.656 700.925 739.473 686.221 745.219C675.133 749.547 658.457 754.713 627.782 756.174C594.561 757.737 584.607 758.064 500.489 758.247C416.37 758.43 406.448 758.09 373.228 756.653M630.018 331.645C630.031 339.121 632.26 346.426 636.425 352.636C640.589 358.846 646.501 363.681 653.414 366.53C660.327 369.379 667.929 370.114 675.259 368.642C682.59 367.171 689.319 363.558 694.596 358.261C699.873 352.965 703.461 346.222 704.906 338.887C706.351 331.551 705.588 323.951 702.714 317.049C699.839 310.147 694.982 304.252 688.758 300.111C682.533 295.969 675.22 293.766 667.743 293.781C657.72 293.801 648.115 297.801 641.041 304.902C633.966 312.002 630.001 321.622 630.018 331.645ZM338.262 500.316C338.439 589.651 410.99 661.907 500.306 661.736C589.622 661.566 661.928 589.021 661.758 499.686C661.588 410.351 589.017 338.077 499.689 338.253C410.36 338.43 338.092 410.994 338.262 500.316ZM395.001 500.203C394.959 479.435 401.078 459.122 412.581 441.831C424.085 424.541 440.458 411.05 459.629 403.065C478.8 395.079 499.908 392.958 520.285 396.969C540.661 400.98 559.391 410.944 574.105 425.6C588.819 440.256 598.856 458.946 602.948 479.306C607.04 499.667 605.003 520.783 597.093 539.986C589.184 559.188 575.758 575.614 558.513 587.186C541.268 598.758 520.979 604.957 500.212 604.998C486.422 605.027 472.762 602.339 460.011 597.088C447.26 591.837 435.669 584.126 425.899 574.394C416.128 564.663 408.371 553.102 403.07 540.372C397.768 527.642 395.026 513.993 395.001 500.203Z" fill="white"/>
</svg>
