<svg width="47" height="48" viewBox="0 0 47 48" fill="none" xmlns="http://www.w3.org/2000/svg">
<path d="M0.0765002 47.256V0.407997H46.9245V47.256H0.0765002ZM2.9565 11.352H11.0205V3.288H2.9565V11.352ZM13.9645 11.352H22.0285V3.288H13.9645V11.352ZM24.9085 11.352H32.9725V3.288H24.9085V11.352ZM35.9165 11.352H44.0445V3.288H35.9165V11.352ZM2.9565 22.36H11.0205V14.296H2.9565V22.36ZM13.9645 22.36H22.0285V14.296H13.9645V22.36ZM24.9085 22.36H32.9725V14.296H24.9085V22.36ZM35.9165 22.36H44.0445V14.296H35.9165V22.36ZM2.9565 33.304H11.0205V25.24H2.9565V33.304ZM13.9645 33.304H22.0285V25.24H13.9645V33.304ZM24.9085 33.304H32.9725V25.24H24.9085V33.304ZM35.9165 33.304H44.0445V25.24H35.9165V33.304ZM2.9565 44.376H11.0205V36.184H2.9565V44.376ZM13.9645 44.376H22.0285V36.184H13.9645V44.376ZM24.9085 44.376H32.9725V36.184H24.9085V44.376ZM35.9165 44.376H44.0445V36.184H35.9165V44.376Z" fill="white"/>
</svg>
