<svg width="163" height="135" viewBox="0 0 163 135" fill="none" xmlns="http://www.w3.org/2000/svg">
<path fill-rule="evenodd" clip-rule="evenodd" d="M11.1985 58.1166C54.9266 39.065 84.0855 26.505 98.6752 20.4366C140.332 3.11023 148.988 0.100445 154.629 0.00105966C155.87 -0.0207989 158.645 0.286722 160.442 1.74501C161.959 2.97636 162.377 4.63974 162.577 5.8072C162.777 6.97465 163.025 9.63415 162.828 11.7122C160.57 35.4307 150.803 92.9894 145.833 119.555C143.731 130.795 139.59 134.564 135.582 134.933C126.871 135.735 120.257 129.176 111.82 123.646C98.6181 114.992 91.1598 109.605 78.345 101.16C63.5353 91.4006 73.1358 86.0367 81.5758 77.2706C83.7846 74.9764 122.165 40.0669 122.907 36.9001C123 36.504 123.086 35.0277 122.209 34.2481C121.332 33.4686 120.038 33.7351 119.104 33.9472C117.78 34.2477 96.6893 48.1876 55.8329 75.7669C49.8465 79.8776 44.4242 81.8805 39.566 81.7755C34.2102 81.6598 23.9078 78.7473 16.2491 76.2577C6.85532 73.2042 -0.610655 71.5897 0.039464 66.4039C0.378086 63.7028 4.09777 60.9403 11.1985 58.1166Z" fill="#000000" />
</svg>
