<svg width="1000" height="1000" viewBox="0 0 1000 1000" fill="none" xmlns="http://www.w3.org/2000/svg">
<rect width="1000" height="1000" rx="200" fill="#808080"/>
<g clip-path="url(#clip0_60_43)">
<path fill-rule="evenodd" clip-rule="evenodd" d="M723.914 274.282C664.511 214.803 585.506 182.03 501.327 182C327.87 182 186.701 323.154 186.64 496.657C186.61 552.122 201.11 606.26 228.647 653.971L184 817.048L350.819 773.29C396.779 798.369 448.532 811.57 501.192 811.586H501.327C674.755 811.586 815.94 670.417 816 496.913C816.03 412.826 783.333 333.776 723.914 274.297V274.282ZM501.327 758.444H501.222C454.296 758.43 408.262 745.814 368.096 721.99L358.545 716.317L259.549 742.284L285.969 645.762L279.752 635.864C253.573 594.22 239.737 546.086 239.767 496.673C239.828 352.471 357.156 235.142 501.434 235.142C571.293 235.172 636.96 262.407 686.343 311.852C735.729 361.283 762.903 427.009 762.873 496.883C762.812 641.101 645.485 758.43 501.327 758.43V758.444ZM644.789 562.564C636.928 558.626 598.272 539.614 591.059 536.989C583.847 534.363 578.612 533.051 573.375 540.927C568.14 548.804 553.067 566.518 548.48 571.753C543.892 577.004 539.305 577.653 531.444 573.714C523.584 569.776 498.25 561.477 468.209 534.695C444.837 513.842 429.053 488.102 424.467 480.225C419.88 472.35 423.984 468.094 427.906 464.186C431.437 460.656 435.768 454.998 439.705 450.41C443.645 445.823 444.942 442.535 447.567 437.298C450.193 432.047 448.88 427.462 446.919 423.522C444.956 419.585 429.235 380.882 422.671 365.145C416.288 349.815 409.801 351.897 404.988 351.641C400.4 351.414 395.165 351.369 389.914 351.369C384.663 351.369 376.153 353.331 368.941 361.207C361.729 369.083 341.419 388.109 341.419 426.796C341.419 465.484 369.59 502.889 373.528 508.14C377.466 513.391 428.977 592.802 507.846 626.872C526.602 634.974 541.252 639.817 552.674 643.439C571.506 649.429 588.645 648.585 602.194 646.562C617.299 644.299 648.713 627.535 655.261 609.172C661.81 590.809 661.81 575.057 659.849 571.782C657.888 568.508 652.637 566.532 644.775 562.594L644.789 562.564Z" fill="white"/>
</g>
<defs>
<clipPath id="clip0_60_43">
<rect width="632" height="635.511" fill="white" transform="translate(184 182)"/>
</clipPath>
</defs>
</svg>
