<svg width="147" height="20" viewBox="0 0 147 20" fill="none" xmlns="http://www.w3.org/2000/svg">
<g clip-path="url(#clip0_58_31)">
<path fill-rule="evenodd" clip-rule="evenodd" d="M8.59484 19.855C8.52488 19.6626 8.2276 18.8671 7.70298 17.4682C7.33578 16.5065 6.77629 15.0464 6.0243 13.0879L4.10972 8.36677C3.56765 6.95042 2.70206 4.84343 1.51308 2.04568C1.16325 1.97577 1.04096 1.94081 1.14584 1.94081C1.05838 1.92327 0.922934 1.90573 0.739251 1.88831C0.555691 1.87077 0.385163 1.83577 0.22775 1.7834H0.0441895V1.15387C0.0967289 1.15387 0.166645 1.15387 0.254019 1.15387C0.341476 1.17141 0.402703 1.18014 0.437661 1.18014C0.594952 1.19755 0.83101 1.22378 1.14584 1.25878C1.30313 1.27632 1.65291 1.28501 2.19499 1.28501C2.40478 1.82708 2.72833 2.64013 3.16549 3.72424C3.56765 4.66848 4.1621 6.09368 4.94892 7.99957C5.36866 9.03126 5.98934 10.5875 6.81124 12.6683C7.59806 14.5918 8.18383 16.0781 8.56857 17.1272C8.97073 18.2289 9.30301 19.1381 9.56518 19.855H8.59484ZM10.6931 17.7567L14.4175 6.97669C15.0646 5.08822 15.353 3.4445 15.2831 2.04568C15.0733 1.99319 14.4351 1.90573 13.3684 1.7834V1.15387C14.8722 1.27632 15.7728 1.31997 16.0699 1.28501L15.388 5.69148L17.0404 1.33751C17.8798 1.14514 18.5443 0.926537 19.0338 0.681749V1.33751C18.859 1.38993 18.3955 1.53861 17.6437 1.7834C17.1366 2.78001 16.6295 3.85543 16.1224 5.00957C15.7378 5.84877 15.458 6.53953 15.2831 7.0816L10.9554 19.855H10.6145C10.5444 19.6452 10.457 19.4266 10.3521 19.1992C10.2297 18.8671 10.0286 18.3687 9.74886 17.7042C9.59145 17.3895 9.37293 16.8998 9.09306 16.2355C8.98819 15.9556 8.82205 15.5273 8.59484 14.9502L3.06045 1.28501C3.55011 1.26759 4.18837 1.1626 4.97519 0.970307C5.35993 0.88285 5.74459 0.786664 6.12921 0.681749V1.33751C5.58718 1.38993 5.04511 1.53861 4.50307 1.7834C4.53803 1.94081 4.60795 2.19429 4.71286 2.54395C4.76536 2.82382 4.90523 3.32208 5.1326 4.03907C5.35993 4.75597 5.56972 5.34169 5.76214 5.79639L10.6931 17.7567ZM30.6007 19.1206C32.6641 19.1031 34.3252 18.4386 35.5842 17.1272C36.9481 15.7109 37.63 13.7175 37.63 11.1471C37.63 10.8672 37.6213 10.5788 37.6038 10.2815C37.3414 5.99749 35.5667 3.08602 32.2793 1.54734C34.2203 1.87958 35.7765 2.92 36.9481 4.66848C38.0322 6.25978 38.6005 8.14825 38.6529 10.3339C38.7228 13.4115 37.9273 15.807 36.2661 17.5207C34.7798 19.0419 32.8651 19.82 30.522 19.855C27.7942 19.9074 25.4991 18.9195 23.6369 16.8912C21.7747 14.8628 20.896 12.4147 21.001 9.54706C21.1059 6.7319 21.9976 4.5636 23.6763 3.04234C23.0468 4.2489 22.6272 5.23678 22.4174 6.00618C22.1375 7.00292 21.9976 8.14825 21.9976 9.44219C22.0152 12.2224 22.8107 14.5218 24.3845 16.3404C26.0106 18.2289 28.0828 19.1556 30.6007 19.1206ZM31.2565 0.0523417C34.0892 0.139675 36.371 1.21509 38.1022 3.27839C39.7633 5.25432 40.5501 7.64118 40.4627 10.4389C40.3928 12.4323 39.9294 14.1109 39.0726 15.4748C38.5656 16.2966 37.971 16.9261 37.2891 17.3633C38.4781 15.8594 39.1775 13.9972 39.3873 11.7765C39.4223 11.3918 39.4397 11.0071 39.4397 10.6225C39.4397 7.92961 38.6486 5.64341 37.0661 3.76363C35.4837 1.88389 33.5383 0.900391 31.2302 0.812893C28.2576 0.708019 26.1505 1.74844 24.909 3.93415C24.1047 5.35051 23.72 7.07287 23.755 9.10122C23.8424 13.2454 25.5385 16.2966 28.8433 18.255C26.9025 17.7829 25.3724 16.6376 24.2534 14.8191C23.2042 13.1404 22.6971 11.2082 22.7321 9.02257C22.767 6.7319 23.3353 4.7822 24.4369 3.17348C25.9407 0.987724 28.2139 -0.0526962 31.2565 0.0523417ZM43.9511 1.33751V0.760518C44.091 0.777935 44.4932 0.795476 45.1576 0.812893C45.1576 0.812893 45.5948 0.812893 46.4691 0.812893C46.609 2.10683 46.7051 3.40085 46.7576 4.69475C46.7751 5.37665 46.8013 6.39966 46.8363 7.76351L46.915 10.5962C46.915 10.5962 46.915 12.2312 46.915 15.501C46.915 17.1797 46.915 18.0189 46.915 18.0189C46.915 18.0189 46.915 18.4561 46.915 19.3304C46.0057 19.4353 45.1926 19.6364 44.4757 19.9336V19.3304C44.773 19.208 45.2013 19.0157 45.7609 18.7533C45.7783 18.7533 45.8221 18.7359 45.8921 18.701C45.9095 18.4911 45.9271 18.2375 45.9445 17.9403C45.9445 17.9403 45.9445 17.0573 45.9445 15.2912V12.5634C45.9445 7.77224 45.7609 4.12644 45.3937 1.62598C45.2713 1.57357 45.0178 1.51238 44.633 1.44242C44.5457 1.42488 44.4058 1.39865 44.2134 1.36366C44.1959 1.36366 44.1522 1.35497 44.0823 1.33751C44.0297 1.33751 43.9861 1.33751 43.9511 1.33751ZM52.9476 19.855C52.3181 19.8724 51.4787 19.7675 50.4296 19.5403C49.4679 19.3304 48.6023 19.2604 47.8329 19.3304C47.798 18.3512 47.7806 17.6256 47.7806 17.1534V15.2125C47.7806 14.9152 47.7717 14.4693 47.7543 13.8749C47.7368 13.2803 47.728 12.8345 47.728 12.5372C47.728 10.946 47.728 10.1504 47.728 10.1504C47.7106 9.15359 47.7018 8.428 47.7018 7.9733C47.7018 6.04987 47.7368 4.17894 47.8067 2.36043C47.8242 1.81836 47.8679 1.34624 47.9379 0.944078C48.5148 0.85658 49.1881 0.760518 49.9575 0.65548C51.0416 0.200903 52.2831 -0.000156723 53.682 0.0523417C56.4972 0.139675 58.7791 1.21509 60.5277 3.27839C62.1888 5.25432 62.9756 7.64118 62.8883 10.4389C62.8184 12.4323 62.355 14.1109 61.4982 15.4748C60.9911 16.2966 60.3965 16.9261 59.7146 17.3633C60.9036 15.8594 61.6031 13.9972 61.8129 11.7765C61.8479 11.3918 61.8653 11.0071 61.8653 10.6225C61.8653 7.92961 61.0742 5.64341 59.4917 3.76363C57.9092 1.88389 55.9638 0.900391 53.6558 0.812893C52.9913 0.795476 52.3443 0.85658 51.7148 0.996576C51.6099 1.01399 51.0066 1.18014 49.9051 1.49484C49.8002 1.54734 49.4417 1.62598 48.8297 1.7309C48.7772 2.60518 48.7422 3.61937 48.7248 4.77351C48.7248 4.77351 48.7248 5.71775 48.7248 7.60622C48.7248 8.20067 48.7159 9.02257 48.6985 10.0717C48.6985 10.0717 48.6985 10.8498 48.6985 12.406V15.1338C48.6985 15.3087 48.6898 15.6496 48.6723 16.1567C48.6723 16.5764 48.6723 16.9174 48.6723 17.1797C48.6898 17.949 48.6985 18.4037 48.6985 18.5436C49.0657 18.5961 49.6515 18.7097 50.4559 18.8845C51.0678 19.0594 51.9247 19.1381 53.0262 19.1206C55.0897 19.0856 56.7508 18.4124 58.0097 17.1009C59.3737 15.6846 60.0556 13.6999 60.0556 11.1471C60.0556 10.8672 60.0469 10.5788 60.0293 10.2815C59.767 5.99749 57.9923 3.08602 54.7049 1.54734C56.6459 1.87958 58.2021 2.92 59.3737 4.66848C60.4578 6.25978 61.0261 8.14825 61.0785 10.3339C61.1484 13.4115 60.3529 15.807 58.6916 17.5207C57.2054 19.0419 55.2906 19.82 52.9476 19.855ZM75.4518 19.1206C77.5152 19.1031 79.1764 18.4386 80.4353 17.1272C81.7992 15.7109 82.4812 13.7175 82.4812 11.1471C82.4812 10.8672 82.4724 10.5788 82.4549 10.2815C82.1926 5.99749 80.4178 3.08602 77.1305 1.54734C79.0714 1.87958 80.6277 2.92 81.7992 4.66848C82.8833 6.25978 83.4516 8.14825 83.5041 10.3339C83.574 13.4115 82.7784 15.807 81.1172 17.5207C79.6309 19.0419 77.7162 19.82 75.3731 19.855C72.6454 19.9074 70.3503 18.9195 68.4881 16.8912C66.6259 14.8628 65.7471 12.4147 65.8522 9.54706C65.9571 6.7319 66.8488 4.5636 68.5275 3.04234C67.8979 4.2489 67.4783 5.23678 67.2685 6.00618C66.9886 7.00292 66.8488 8.14825 66.8488 9.44219C66.8663 12.2224 67.6619 14.5218 69.2356 16.3404C70.8618 18.2289 72.9339 19.1556 75.4518 19.1206ZM76.1076 0.0523417C78.9403 0.139675 81.2221 1.21509 82.9533 3.27839C84.6144 5.25432 85.4012 7.64118 85.3139 10.4389C85.2439 12.4323 84.7805 14.1109 83.9238 15.4748C83.4167 16.2966 82.8221 16.9261 82.1402 17.3633C83.3292 15.8594 84.0287 13.9972 84.2385 11.7765C84.2734 11.3918 84.2909 11.0071 84.2909 10.6225C84.2909 7.92961 83.4998 5.64341 81.9173 3.76363C80.3348 1.88389 78.3894 0.900391 76.0813 0.812893C73.1087 0.708019 71.0016 1.74844 69.7601 3.93415C68.9559 5.35051 68.5711 7.07287 68.6061 9.10122C68.6936 13.2454 70.3896 16.2966 73.6945 18.255C71.7536 17.7829 70.2235 16.6376 69.1045 14.8191C68.0553 13.1404 67.5483 11.2082 67.5832 9.02257C67.6182 6.7319 68.1865 4.7822 69.288 3.17348C70.7919 0.987724 73.0651 -0.0526962 76.1076 0.0523417ZM95.2546 18.8058L95.2283 19.4615C94.1617 19.2693 93.2699 19.1992 92.5529 19.2517C92.5529 19.007 92.5529 18.6353 92.5529 18.1458C92.5355 17.6737 92.5268 17.3152 92.5268 17.066V15.1207L92.4743 12.4366C92.4743 12.4366 92.4743 11.6411 92.4743 10.0455V7.86412C92.4743 4.40627 92.5442 2.01503 92.6841 0.681749C93.4884 0.839163 94.3627 0.891538 95.307 0.839163C96.9507 0.734248 97.825 0.681749 97.9299 0.681749C99.9757 0.716707 101.567 1.34624 102.703 2.57464C103.7 3.6981 104.164 5.05326 104.094 6.64883C104.041 7.71982 103.648 8.76455 102.913 9.77882C102.739 10.0236 102.45 10.3733 102.048 10.8323C101.855 10.9897 101.593 11.1471 101.261 11.3044C102.415 10.0629 103.001 8.53291 103.018 6.71436C103.053 3.39212 101.34 1.63471 97.8774 1.44242C96.6184 1.37251 95.2195 1.50365 93.6808 1.83577C93.5759 2.62272 93.5147 3.57568 93.4972 4.69475C93.4972 5.32428 93.4972 6.26851 93.4972 7.52745C93.4972 7.73724 93.4884 8.15698 93.471 8.78651C93.4535 9.29359 93.4447 9.69579 93.4447 9.99295C93.4447 10.0105 93.471 10.3165 93.5234 10.911C94.7474 11.4355 95.9539 11.6629 97.143 11.5929C98.4893 11.523 99.521 11.0421 100.238 10.1504C100.955 9.25863 101.313 8.12202 101.313 6.74063C101.313 4.64233 100.535 3.20844 98.979 2.43907C100.011 2.45662 100.833 2.87619 101.445 3.6981C102.056 4.51992 102.345 5.56034 102.31 6.81927C102.275 8.25317 101.864 9.46842 101.077 10.4651C100.133 11.6716 98.8216 12.2924 97.143 12.3274C96.2688 12.3448 95.0359 12.1612 93.4447 11.7765C93.4447 13.9623 93.4447 15.0552 93.4447 15.0552C93.4098 15.9294 93.4098 17.066 93.4447 18.4649C94.0917 18.5348 94.695 18.6485 95.2546 18.8058ZM88.6448 1.25878V0.681749C88.6798 0.681749 88.8459 0.681749 89.1432 0.681749C89.4405 0.681749 89.6941 0.681749 89.9039 0.681749C89.9039 0.681749 90.3323 0.681749 91.1891 0.681749C91.5038 3.94288 91.6612 7.93404 91.6612 12.6465V17.9359C91.6612 18.0759 91.6612 18.2944 91.6612 18.5916C91.6437 18.8714 91.6349 19.09 91.6349 19.2517C90.7257 19.3567 89.9039 19.5577 89.1695 19.855V19.2517C89.4667 19.1119 89.9039 18.9195 90.4809 18.6747C90.5333 18.6747 90.5771 18.6572 90.612 18.6222C90.6295 18.4124 90.647 18.1589 90.6645 17.8616C90.6645 17.8616 90.6645 16.9786 90.6645 15.2125V12.4847C90.6645 7.90338 90.4809 4.25759 90.1137 1.54734C90.0088 1.49484 89.7465 1.43361 89.3269 1.36366C89.2394 1.34624 89.0995 1.31997 88.9071 1.28501C88.8897 1.28501 88.8459 1.27632 88.776 1.25878C88.7236 1.25878 88.6798 1.25878 88.6448 1.25878ZM116.29 0.0523417L118.939 7.05533C119.381 8.13944 120.032 9.77001 120.893 11.9558C121.26 12.9525 121.833 14.4388 122.62 16.4146C122.825 16.8693 123.123 17.5644 123.503 18.4911C123.678 18.526 123.809 18.5611 123.896 18.5961C124.106 18.631 124.255 18.6485 124.342 18.6485C124.552 18.6834 124.71 18.701 124.814 18.701C124.832 18.701 124.867 18.701 124.919 18.701C124.954 18.701 124.981 18.701 124.998 18.701V19.3829C124.911 19.3653 124.557 19.3217 123.931 19.2517C123.568 19.2124 123.206 19.208 122.843 19.243C122.633 18.701 122.31 17.8703 121.877 16.7513L120.054 12.323C119.63 11.2563 118.992 9.64768 118.126 7.50118C117.405 5.71775 116.815 4.19206 116.356 2.91558L115.346 0.0523417H116.29ZM118.441 12.5634H110.651C109.829 14.9152 109.453 16.8824 109.523 18.4649C109.855 18.5348 110.502 18.6135 111.464 18.701V19.3829C110.118 19.2604 109.2 19.2168 108.71 19.2517L109.418 14.7141L107.739 19.1992C106.865 19.3916 106.183 19.6103 105.694 19.855V19.1992C105.903 19.1642 106.384 19.007 107.136 18.7271C107.171 18.6747 107.215 18.5916 107.267 18.478C107.32 18.3643 107.355 18.29 107.372 18.255L108.605 15.418C108.762 15.0464 108.998 14.4956 109.313 13.7612C109.366 13.6562 109.436 13.4814 109.523 13.2367L113.825 0.812893C113.51 0.812893 113.073 0.786664 112.513 0.734248C112.338 0.734248 112.128 0.725437 111.884 0.708019C111.639 0.690479 111.499 0.681749 111.464 0.681749V0.0523417H114.218C114.69 1.01399 115.11 1.9845 115.477 2.96369C115.757 3.68055 116.028 4.40627 116.29 5.14059L121.929 19.2517C121.247 19.2517 120.216 19.4528 118.834 19.855V19.1992C119.411 19.1119 119.962 18.9545 120.487 18.7271C120.382 18.3774 120.303 18.1239 120.251 17.9665C120.181 17.6343 120.041 17.1185 119.831 16.419C119.534 15.4398 119.07 14.1546 118.441 12.5634ZM110.966 11.6454H118.117L114.222 2.2424L110.966 11.6454ZM127.306 1.33751V0.760518C127.446 0.777935 127.848 0.795476 128.513 0.812893C128.513 0.812893 128.95 0.812893 129.824 0.812893C129.964 2.10683 130.06 3.40085 130.112 4.69475C130.13 5.37665 130.156 6.39966 130.191 7.76351L130.27 10.5962C130.27 10.5962 130.27 12.2312 130.27 15.501C130.27 17.1797 130.27 18.0189 130.27 18.0189C130.27 18.0189 130.27 18.4561 130.27 19.3304C129.361 19.4353 128.548 19.6364 127.831 19.9336V19.3304C128.128 19.208 128.556 19.0157 129.116 18.7533C129.133 18.7533 129.177 18.7359 129.247 18.701C129.264 18.4911 129.282 18.2375 129.299 17.9403C129.299 17.9403 129.299 17.0573 129.299 15.2912V12.5634C129.299 7.77224 129.116 4.12644 128.749 1.62598C128.626 1.57357 128.373 1.51238 127.988 1.44242C127.901 1.42488 127.761 1.39865 127.568 1.36366C127.551 1.36366 127.507 1.35497 127.437 1.33751C127.385 1.33751 127.341 1.33751 127.306 1.33751ZM136.303 19.855C135.673 19.8724 134.834 19.7675 133.785 19.5403C132.823 19.3304 131.957 19.2604 131.188 19.3304C131.153 18.3512 131.135 17.6256 131.135 17.1534V15.2125C131.135 14.9152 131.127 14.4693 131.109 13.8749C131.092 13.2803 131.083 12.8345 131.083 12.5372C131.083 10.946 131.083 10.1504 131.083 10.1504C131.066 9.15359 131.057 8.428 131.057 7.9733C131.057 6.04987 131.092 4.17894 131.162 2.36043C131.179 1.81836 131.223 1.34624 131.293 0.944078C131.87 0.85658 132.543 0.760518 133.312 0.65548C134.397 0.200903 135.638 -0.000156723 137.037 0.0523417C139.852 0.139675 142.134 1.21509 143.883 3.27839C145.544 5.25432 146.331 7.64118 146.243 10.4389C146.173 12.4323 145.71 14.1109 144.853 15.4748C144.346 16.2966 143.752 16.9261 143.07 17.3633C144.259 15.8594 144.958 13.9972 145.168 11.7765C145.203 11.3918 145.22 11.0071 145.22 10.6225C145.22 7.92961 144.429 5.64341 142.847 3.76363C141.264 1.88389 139.319 0.900391 137.011 0.812893C136.346 0.795476 135.699 0.85658 135.07 0.996576C134.965 1.01399 134.362 1.18014 133.26 1.49484C133.155 1.54734 132.797 1.62598 132.185 1.7309C132.132 2.60518 132.097 3.61937 132.08 4.77351C132.08 4.77351 132.08 5.71775 132.08 7.60622C132.08 8.20067 132.071 9.02257 132.053 10.0717C132.053 10.0717 132.053 10.8498 132.053 12.406V15.1338C132.053 15.3087 132.045 15.6496 132.027 16.1567C132.027 16.5764 132.027 16.9174 132.027 17.1797C132.045 17.949 132.053 18.4037 132.053 18.5436C132.421 18.5961 133.006 18.7097 133.811 18.8845C134.423 19.0594 135.28 19.1381 136.381 19.1206C138.445 19.0856 140.106 18.4124 141.365 17.1009C142.729 15.6846 143.411 13.6999 143.411 11.1471C143.411 10.8672 143.402 10.5788 143.384 10.2815C143.122 5.99749 141.347 3.08602 138.06 1.54734C140.001 1.87958 141.557 2.92 142.729 4.66848C143.813 6.25978 144.381 8.14825 144.433 10.3339C144.503 13.4115 143.708 15.807 142.047 17.5207C140.56 19.0419 138.646 19.82 136.303 19.855Z" fill="#1B1918" stroke="#1B1918" stroke-width="0.287999"/>
</g>
<defs>
<clipPath id="clip0_58_31">
<rect width="146.294" height="20" fill="white"/>
</clipPath>
</defs>
</svg>
