<svg width="39" height="49" viewBox="0 0 39 49" fill="none" xmlns="http://www.w3.org/2000/svg">
<path d="M27.87 46.168C27.0593 43.992 26.2913 42.264 25.566 40.984C24.8833 39.704 24.0727 38.68 23.134 37.912C22.1953 37.144 20.958 36.4827 19.422 35.928C17.886 35.3307 15.902 34.6267 13.47 33.816C11.1233 33.0907 8.94733 32.3227 6.942 31.512C4.93667 30.7013 3.33667 29.848 2.142 28.952C0.947333 28.0133 0.35 27.0107 0.35 25.944C0.35 25.0053 0.947333 24.2373 2.142 23.64C3.33667 23 4.87267 22.68 6.75 22.68C8.96867 22.68 11.1873 23.0213 13.406 23.704C15.6247 24.344 17.694 25.2827 19.614 26.52C21.534 27.7147 23.1127 29.1227 24.35 30.744L22.814 30.808C22.7713 29.016 23.006 27.2027 23.518 25.368C24.0727 23.4907 24.8407 21.72 25.822 20.056C26.8033 18.3493 27.8913 16.8347 29.086 15.512C30.2807 14.1893 31.4967 13.144 32.734 12.376C33.9713 11.5653 35.1233 11.16 36.19 11.16C37.726 11.16 38.494 12.0347 38.494 13.784C38.494 15.7467 38.0673 17.7733 37.214 19.864C36.3607 21.9547 35.102 24.1307 33.438 26.392C31.8593 28.6107 30.6647 30.68 29.854 32.6C29.086 34.4773 28.702 36.184 28.702 37.72C28.702 38.1893 28.766 38.8507 28.894 39.704C29.0647 40.5147 29.278 41.3893 29.534 42.328C29.8327 43.2667 30.1527 44.184 30.494 45.08L27.87 46.168ZM28.574 48.024L17.374 19.352L20.318 18.392L31.326 46.936L28.574 48.024ZM16.03 20.12C14.238 20.12 12.5953 19.6933 11.102 18.84C9.65133 17.9867 8.49933 16.8347 7.646 15.384C6.79267 13.8907 6.366 12.248 6.366 10.456C6.366 8.664 6.79267 7.04266 7.646 5.592C8.49933 4.14133 9.65133 2.98933 11.102 2.136C12.5953 1.24 14.238 0.791996 16.03 0.791996C17.822 0.791996 19.4433 1.24 20.894 2.136C22.3873 2.98933 23.5607 4.14133 24.414 5.592C25.2673 7.04266 25.694 8.664 25.694 10.456C25.694 12.248 25.2673 13.8907 24.414 15.384C23.5607 16.8347 22.3873 17.9867 20.894 18.84C19.4433 19.6933 17.822 20.12 16.03 20.12ZM16.03 14.808C16.8407 14.808 17.566 14.616 18.206 14.232C18.846 13.8053 19.358 13.272 19.742 12.632C20.1687 11.992 20.382 11.2667 20.382 10.456C20.382 9.64533 20.1687 8.92 19.742 8.28C19.358 7.64 18.846 7.128 18.206 6.744C17.566 6.31733 16.8407 6.104 16.03 6.104C15.2193 6.104 14.494 6.31733 13.854 6.744C13.214 7.128 12.6807 7.64 12.254 8.28C11.87 8.92 11.678 9.64533 11.678 10.456C11.678 11.2667 11.87 11.992 12.254 12.632C12.6807 13.272 13.214 13.8053 13.854 14.232C14.494 14.616 15.2193 14.808 16.03 14.808Z" fill="white"/>
</svg>
