<svg width="1000" height="1000" viewBox="0 0 1000 1000" fill="none" xmlns="http://www.w3.org/2000/svg">
<rect width="1000" height="1000" rx="200" fill="#808080"/>
<g clip-path="url(#clip0_60_39)">
<path d="M225 250C183.579 250 150 283.528 150 325C150.93 438.729 150.002 559.088 150 675C150 714.915 181.049 747.22 220.312 749.61L778.125 749.998C818.112 748.385 850 715.435 850 674.998V312.11C843.937 276.748 813.238 249.998 776.175 249.998C592.55 250.081 408.7 250.001 225 250ZM223.828 289.453H778.516L510.153 557.815C505.256 562.712 497.472 562.712 492.576 557.815L223.828 289.453ZM812.503 308.603V672.265C812.503 693.933 804.697 706.171 789.066 710.546L600.003 521.096L812.503 308.603ZM191.803 310.153L400.778 519.14L209.766 710.153C196.691 705.74 192.139 695.215 191.801 680.865V310.165L191.803 310.153ZM427.353 545.303L492.588 610.928C497.485 615.824 505.269 615.824 510.166 610.928L573.441 547.653L738.278 712.503H260.153L427.341 545.315L427.353 545.303Z" fill="white"/>
</g>
<defs>
<clipPath id="clip0_60_39">
<rect width="700" height="500" fill="white" transform="translate(150 250)"/>
</clipPath>
</defs>
</svg>
